<svg width="248" height="248" viewBox="0 0 248 248" fill="none" xmlns="http://www.w3.org/2000/svg">
<path d="M183 134.004C141.351 98.2103 137.067 134.88 161 163.003L204 163C204.651 159.482 203.857 151.32 199.274 142L197.481 142.883C193.5 144 189 140.5 183 134.004Z" fill="black"/>
<path d="M161 163.003L159.477 164.3L160.076 165.004L161 165.003L161 163.003ZM181.696 135.52C182.534 136.24 183.797 136.145 184.517 135.307C185.237 134.469 185.141 133.207 184.303 132.487L183 134.004L181.696 135.52ZM204.186 159.686L206.185 159.62L204.186 159.686ZM161 163.003L162.523 161.707C156.69 154.853 152.603 147.507 150.378 140.933C148.124 134.275 147.882 128.73 149.263 125.278C149.929 123.614 150.948 122.483 152.292 121.837C153.662 121.179 155.591 120.922 158.241 121.442C163.609 122.497 171.364 126.64 181.696 135.52L183 134.004L184.303 132.487C173.812 123.47 165.412 118.775 159.012 117.517C155.777 116.882 152.918 117.099 150.56 118.232C148.176 119.377 146.527 121.351 145.55 123.792C143.646 128.549 144.217 135.206 146.589 142.216C148.99 149.308 153.343 157.092 159.477 164.3L161 163.003ZM161 163.003L161.002 165.003L164.002 165L164 163L163.998 161L160.998 161.003L161 163.003ZM204.186 159.686L206.185 159.62C206.035 155.102 204.661 148.423 201.069 141.118L199.274 142L197.479 142.883C200.838 149.714 202.057 155.84 202.187 159.753L204.186 159.686ZM200.673 163L200.673 161L161 161.003L161 163.003L161 165.003L200.673 165L200.673 163ZM204.186 159.686L202.187 159.753C202.198 160.092 202.071 160.367 201.83 160.587C201.571 160.823 201.164 161 200.673 161L200.673 163L200.673 165C203.482 165 206.294 162.912 206.185 159.62L204.186 159.686Z" fill="black"/>
</svg>
