<svg xmlns="http://www.w3.org/2000/svg" viewBox="0 0 24 24">
<path d="M 10.85,2 9.18,4.5 10.32,5.25 7.14,10 H 7 c -1.1045695,0 -2,0.895431 -2,2 0,0.94 0.66,1.75 1.58,1.95 L 10.62,20 H 7 v 2 H 17 V 20 H 13 L 8.53,13.28 C 8.83,12.92 9,12.47 9,12 9,11.7 8.93,11.4 8.8,11.13 L 12,6.37 C 11.78,8.05 12.75,9.89 14.45,11 L 18.89,4.37 C 17.2,3.24 15.12,3.04 13.65,3.87 L 10.85,2" />
<path d="m 18.111744,8.6243988 c 0.450252,-0.6690472 0.452233,-1.5036557 0.08231,-2.1607106 l -2.047755,3.0428456 c 0.743855,0.101405 1.515188,-0.213086 1.965441,-0.882135 z M 19.399821,4.672 18.875798,5.450666 c 0.87115,1.0619073 0.985164,2.6128945 0.17878,3.8111328 -0.806385,1.1982372 -2.283873,1.6732952 -3.592556,1.2615352 L 14.938,11.302 c 1.74379,0.678415 3.7821,0.08753 4.870846,-1.5302822 C 20.89759,8.1539066 20.680641,6.0383623 19.399821,4.672 Z" style="opacity:0.66;stroke-width:0.455423" />
</svg>
