<?xml version="1.0" encoding="UTF-8" standalone="no"?>
<svg
   id="svg10"
   version="1.1"
   width="24"
   viewBox="0 0 24 24"
   height="24"
   xmlns="http://www.w3.org/2000/svg"
   xmlns:svg="http://www.w3.org/2000/svg">
  <path
     d="m 19.071068,4.9289322 c -3.889087,-3.8890873 -10.2530485,-3.8890873 -14.1421358,0 -3.8890873,3.8890873 -3.8890873,10.2530488 0,14.1421358 3.8890873,3.889087 10.2530488,3.889087 14.1421358,0 3.889087,-3.889087 3.889087,-10.2530485 0,-14.1421358 z M 6.3431458,17.656854 C 4.7875108,16.101219 4.0096934,14.05061 3.9389827,12 H 20.061017 c -0.07071,2.05061 -0.848528,4.101219 -2.404163,5.656854 -3.11127,3.11127 -8.2024384,3.11127 -11.3137082,0 z M 14.997658,12 A 2.9976585,2.9976585 0 0 1 12,14.997658 2.9976585,2.9976585 0 0 1 9.0023415,12 2.9976585,2.9976585 0 0 1 12,9.0023415 2.9976585,2.9976585 0 0 1 14.997658,12 Z"
     style="stroke-width:1"
     id="path6" />
</svg>
