<?xml version="1.0" encoding="UTF-8" standalone="no"?>
<svg
   id="svg10"
   version="1.1"
   width="24"
   viewBox="0 0 24 24"
   height="24"
   xmlns="http://www.w3.org/2000/svg"
   xmlns:svg="http://www.w3.org/2000/svg">
  <path
     id="path400"
     d="m 88.000978,-7.3191551 c -51.523083,0 -93.4402198,41.9133291 -93.4402198,93.4374921 0,22.152913 7.8844213,43.588383 22.2260318,60.463913 l 0.355286,0.43635 c 44.084412,54.83252 49.741389,86.44482 49.781353,86.67812 l 0.132199,0.71628 c 1.829696,8.14506 5.992401,18.96907 20.94535,18.96907 14.951862,0 19.107392,-10.82617 20.937092,-18.96907 l 0.12393,-0.63396 c 0.0508,-0.31321 5.71239,-31.92792 49.79788,-86.76044 l 0.28919,-0.35402 c 14.03357,-17.17958 22.29213,-38.35984 22.29213,-60.546243 0,-51.524163 -41.91714,-93.4374921 -93.440222,-93.4374921 z m -0.0082,69.9155161 c 12.735492,0 23.060542,10.318734 23.060542,23.05269 0,12.732874 -10.32505,23.060919 -23.060542,23.060919 -12.735495,0 -23.06054,-10.328045 -23.06054,-23.060919 0,-12.733956 10.326126,-23.05269 23.06054,-23.05269 z M 12.732263,89.905565 h 43.796985 c 2.086387,15.505875 15.392563,27.498565 31.463468,27.498565 16.069824,0 29.384274,-11.99269 31.471734,-27.498565 h 43.79341 c -0.84961,16.223695 -6.849,31.794835 -17.54405,44.137665 l -2.47266,3.11212 c -43.655607,55.1047 -50.885397,90.85782 -51.701955,95.40074 -1.088491,5.02764 -6.20473,4.06915 -7.080108,0 -0.815478,-4.54292 -6.138846,-41.85483 -51.706508,-95.40074 l -2.464491,-3.11212 C 19.59204,121.7004 13.581742,106.13098 12.732263,89.905565 Z"
     style="stroke-width:1"
     transform="matrix(0.09205941,0,0,0.09205941,3.8899434,0.67379707)" />
</svg>
