<?xml version="1.0" encoding="UTF-8" standalone="no"?>
<svg
   width="16"
   height="16"
   fill="currentColor"
   class="bi bi-dpad-fill"
   viewBox="0 0 16 16"
   version="1.1"
   id="svg235"
   sodipodi:docname="logo.svg"
   inkscape:version="1.2.1 (9c6d41e410, 2022-07-14, custom)"
   xmlns:inkscape="http://www.inkscape.org/namespaces/inkscape"
   xmlns:sodipodi="http://sodipodi.sourceforge.net/DTD/sodipodi-0.dtd"
   xmlns="http://www.w3.org/2000/svg"
   xmlns:svg="http://www.w3.org/2000/svg">
  <defs
     id="defs239">
    <linearGradient
       id="linearGradient993">
      <stop
         style="stop-color:#f79b00;stop-opacity:1;"
         offset="0"
         id="stop997" />
      <stop
         style="stop-color:#fdc600;stop-opacity:0.80655843;"
         offset="1"
         id="stop999" />
    </linearGradient>
  </defs>
  <sodipodi:namedview
     id="namedview237"
     pagecolor="#ffffff"
     bordercolor="#666666"
     borderopacity="1.0"
     inkscape:showpageshadow="2"
     inkscape:pageopacity="0.0"
     inkscape:pagecheckerboard="0"
     inkscape:deskcolor="#d1d1d1"
     showgrid="false"
     inkscape:zoom="68.5"
     inkscape:cx="8.0218978"
     inkscape:cy="8"
     inkscape:current-layer="svg235" />
  <path
     d="M 6.675119,0.93396798 A 1.324881,1.324881 0 0 0 5.350238,2.258849 V 4.908611 A 0.441627,0.441627 0 0 1 4.908611,5.350238 H 2.258849 A 1.324881,1.324881 0 0 0 0.93396798,6.675119 V 9.324881 A 1.324881,1.324881 0 0 0 2.258849,10.649762 h 2.649762 a 0.441627,0.441627 0 0 1 0.441627,0.441627 v 2.649762 a 1.324881,1.324881 0 0 0 1.324881,1.324881 h 2.649762 a 1.324881,1.324881 0 0 0 1.324881,-1.324881 v -2.649762 a 0.441627,0.441627 0 0 1 0.441627,-0.441627 h 2.649762 A 1.324881,1.324881 0 0 0 15.066032,9.324881 V 6.675119 A 1.324881,1.324881 0 0 0 13.741151,5.350238 H 11.091389 A 0.441627,0.441627 0 0 1 10.649762,4.908611 V 2.258849 A 1.324881,1.324881 0 0 0 9.324881,0.93396798 Z M 7.8127502,3.0007823 a 0.2208135,0.2208135 0 0 1 0.3744996,0 l 0.70572,1.1287987 A 0.2208135,0.2208135 0 0 1 8.7057199,4.466984 H 7.2942801 A 0.2208135,0.2208135 0 0 1 7.1070302,4.129581 l 0.70572,-1.1296819 z m 0,9.9984357 -0.70572,-1.127916 a 0.2208135,0.2208135 0 0 1 0.1872499,-0.338286 h 1.4123231 a 0.2208135,0.2208135 0 0 1 0.1872499,0.338286 l -0.70572,1.128799 a 0.2208135,0.2208135 0 0 1 -0.3744997,0 z M 4.129581,8.8920865 2.9998991,8.1872498 a 0.2208135,0.2208135 0 0 1 0,-0.3744996 L 4.129581,7.1070302 A 0.2208135,0.2208135 0 0 1 4.466984,7.2942801 V 8.7066032 A 0.2208135,0.2208135 0 0 1 4.129581,8.8938531 Z m 8.87052,-0.7048367 -1.128799,0.70572 A 0.2208135,0.2208135 0 0 1 11.533016,8.7057199 V 7.2933968 a 0.2208135,0.2208135 0 0 1 0.338286,-0.1872499 l 1.128799,0.70572 a 0.2208135,0.2208135 0 0 1 0,0.3744997 z"
     id="path233"
     style="fill:#ffbb10;fill-opacity:1;stroke-width:0.883254" />
</svg>
