<?xml version="1.0" encoding="UTF-8" standalone="no"?>
<svg
   width="16"
   height="16"
   fill="currentColor"
   class="bi bi-dpad-fill"
   viewBox="0 0 16 16"
   version="1.1"
   id="svg1026"
   sodipodi:docname="logo_drawer.svg"
   inkscape:version="1.3.2 (091e20ef0f, 2023-11-25, custom)"
   xmlns:inkscape="http://www.inkscape.org/namespaces/inkscape"
   xmlns:sodipodi="http://sodipodi.sourceforge.net/DTD/sodipodi-0.dtd"
   xmlns="http://www.w3.org/2000/svg"
   xmlns:svg="http://www.w3.org/2000/svg">
  <defs
     id="defs1030" />
  <sodipodi:namedview
     id="namedview1028"
     pagecolor="#ffffff"
     bordercolor="#666666"
     borderopacity="1.0"
     inkscape:showpageshadow="2"
     inkscape:pageopacity="0.0"
     inkscape:pagecheckerboard="0"
     inkscape:deskcolor="#d1d1d1"
     showgrid="false"
     inkscape:zoom="68.5"
     inkscape:cx="8.0072993"
     inkscape:cy="7.9927007"
     inkscape:current-layer="svg1026" />
  <path
     d="M6.5 0A1.5 1.5 0 0 0 5 1.5v3a.5.5 0 0 1-.5.5h-3A1.5 1.5 0 0 0 0 6.5v3A1.5 1.5 0 0 0 1.5 11h3a.5.5 0 0 1 .5.5v3A1.5 1.5 0 0 0 6.5 16h3a1.5 1.5 0 0 0 1.5-1.5v-3a.5.5 0 0 1 .5-.5h3A1.5 1.5 0 0 0 16 9.5v-3A1.5 1.5 0 0 0 14.5 5h-3a.5.5 0 0 1-.5-.5v-3A1.5 1.5 0 0 0 9.5 0h-3Zm1.288 2.34a.25.25 0 0 1 .424 0l.799 1.278A.25.25 0 0 1 8.799 4H7.201a.25.25 0 0 1-.212-.382l.799-1.279Zm0 11.32-.799-1.277A.25.25 0 0 1 7.201 12H8.8a.25.25 0 0 1 .212.383l-.799 1.278a.25.25 0 0 1-.424 0Zm-4.17-4.65-1.279-.798a.25.25 0 0 1 0-.424l1.279-.799A.25.25 0 0 1 4 7.201V8.8a.25.25 0 0 1-.382.212Zm10.043-.798-1.278.799A.25.25 0 0 1 12 8.799V7.2a.25.25 0 0 1 .383-.212l1.278.799a.25.25 0 0 1 0 .424Z"
     id="path1024"
     style="fill-opacity:1;opacity:0.66" />
</svg>
