<?xml version="1.0" encoding="UTF-8" standalone="no"?>
<svg
   viewBox="0 0 24 24"
   version="1.1"
   id="svg4"
   sodipodi:docname="logo2.svg"
   inkscape:version="1.2.1 (9c6d41e410, 2022-07-14, custom)"
   xmlns:inkscape="http://www.inkscape.org/namespaces/inkscape"
   xmlns:sodipodi="http://sodipodi.sourceforge.net/DTD/sodipodi-0.dtd"
   xmlns="http://www.w3.org/2000/svg"
   xmlns:svg="http://www.w3.org/2000/svg">
  <defs
     id="defs8" />
  <sodipodi:namedview
     id="namedview6"
     pagecolor="#ffffff"
     bordercolor="#666666"
     borderopacity="1.0"
     inkscape:showpageshadow="2"
     inkscape:pageopacity="0.0"
     inkscape:pagecheckerboard="0"
     inkscape:deskcolor="#d1d1d1"
     showgrid="false"
     inkscape:zoom="45.666667"
     inkscape:cx="12.010949"
     inkscape:cy="12"
     inkscape:current-layer="svg4" />
  <path
     d="M9,2C7.89,2 7,2.89 7,4V20C7,21.11 7.89,22 9,22H15C16.11,22 17,21.11 17,20V4C17,2.89 16.11,2 15,2H13V4H11V2H9M11,6H13V8H15V10H13V12H11V10H9V8H11V6M9,14H11V16H9V14M13,14H15V16H13V14M9,18H11V20H9V18M13,18H15V20H13V18Z"
     id="path2"
     style="fill:#ffbb10;fill-opacity:1" />
</svg>
