<?xml version="1.0" encoding="UTF-8" standalone="no"?>
<svg
   viewBox="0 0 32 32"
   version="1.1"
   id="svg925"
   sodipodi:docname="logo_tray_symbolic.svg"
   inkscape:version="1.2.1 (9c6d41e410, 2022-07-14)"
   width="32"
   height="32"
   xmlns:inkscape="http://www.inkscape.org/namespaces/inkscape"
   xmlns:sodipodi="http://sodipodi.sourceforge.net/DTD/sodipodi-0.dtd"
   xmlns="http://www.w3.org/2000/svg"
   xmlns:svg="http://www.w3.org/2000/svg">
  <defs
     id="defs929" />
  <sodipodi:namedview
     id="namedview927"
     pagecolor="#ffffff"
     bordercolor="#666666"
     borderopacity="1.0"
     inkscape:showpageshadow="2"
     inkscape:pageopacity="0.0"
     inkscape:pagecheckerboard="0"
     inkscape:deskcolor="#d1d1d1"
     showgrid="false"
     inkscape:zoom="22.534265"
     inkscape:cx="5.9464997"
     inkscape:cy="12.336768"
     inkscape:current-layer="svg925" />
  <path
     d="M 11.2,0 C 9.424,0 8,1.4239999 8,3.1999999 V 28.799999 C 8,30.576001 9.424,32 11.2,32 h 9.6 c 1.776,0 3.199999,-1.423999 3.199999,-3.200001 V 3.1999999 C 23.999999,1.4239999 22.576,0 20.8,0 H 17.6 V 3.1999999 H 14.4 V 0 h -3.2 m 3.2,6.4 h 3.2 v 3.1999998 h 3.2 V 12.8 h -3.2 v 3.199999 H 14.4 V 12.8 H 11.2 V 9.5999998 h 3.2 V 6.4 m -3.2,12.8 h 3.2 v 3.2 h -3.2 v -3.2 m 6.4,0 h 3.2 v 3.2 h -3.2 v -3.2 m -6.4,6.400001 h 3.2 v 3.199998 h -3.2 v -3.199998 m 6.4,0 h 3.2 v 3.199998 h -3.2 z"
     id="path923"
     style="fill:#bebebe;fill-opacity:1;stroke-width:1.6" />
</svg>
