<?xml version="1.0" encoding="UTF-8" standalone="no"?>
<svg
   xmlns:dc="http://purl.org/dc/elements/1.1/"
   xmlns:cc="http://creativecommons.org/ns#"
   xmlns:rdf="http://www.w3.org/1999/02/22-rdf-syntax-ns#"
   xmlns:svg="http://www.w3.org/2000/svg"
   xmlns="http://www.w3.org/2000/svg"
   xmlns:sodipodi="http://sodipodi.sourceforge.net/DTD/sodipodi-0.dtd"
   xmlns:inkscape="http://www.inkscape.org/namespaces/inkscape"
   inkscape:version="1.0 (4035a4fb49, 2020-05-01)"
   sodipodi:docname="baseline-pgp.svg"
   id="svg10"
   version="1.1"
   width="24"
   viewBox="0 0 24 24"
   height="24"
   enable-background="new 0 0 24 24">
  <metadata
     id="metadata16">
    <rdf:RDF>
      <cc:Work
         rdf:about="">
        <dc:format>image/svg+xml</dc:format>
        <dc:type
           rdf:resource="http://purl.org/dc/dcmitype/StillImage" />
      </cc:Work>
    </rdf:RDF>
  </metadata>
  <defs
     id="defs14" />
  <sodipodi:namedview
     inkscape:current-layer="g8"
     inkscape:window-maximized="0"
     inkscape:window-y="111"
     inkscape:window-x="1724"
     inkscape:cy="19.878859"
     inkscape:cx="11.625018"
     inkscape:zoom="21.671619"
     inkscape:snap-center="true"
     inkscape:snap-object-midpoints="true"
     showgrid="false"
     id="namedview12"
     inkscape:window-height="982"
     inkscape:window-width="1230"
     inkscape:pageshadow="2"
     inkscape:pageopacity="0"
     guidetolerance="10"
     gridtolerance="10"
     objecttolerance="10"
     borderopacity="1"
     bordercolor="#666666"
     pagecolor="#ffffff" />
  <g
     id="g4">
    <rect
       id="rect2"
       width="24"
       height="24"
       fill="none" />
  </g>
  <g
     id="g8">
    <path
       d="m 19.071068,4.9289322 c -3.889087,-3.8890873 -10.2530485,-3.8890873 -14.1421358,0 -3.8890873,3.8890873 -3.8890873,10.2530488 0,14.1421358 3.8890873,3.889087 10.2530488,3.889087 14.1421358,0 3.889087,-3.889087 3.889087,-10.2530485 0,-14.1421358 z M 6.3431458,17.656854 C 4.7875108,16.101219 4.0096934,14.05061 3.9389827,12 H 20.061017 c -0.07071,2.05061 -0.848528,4.101219 -2.404163,5.656854 -3.11127,3.11127 -8.2024384,3.11127 -11.3137082,0 z M 14.997658,12 A 2.9976585,2.9976585 0 0 1 12,14.997658 2.9976585,2.9976585 0 0 1 9.0023415,12 2.9976585,2.9976585 0 0 1 12,9.0023415 2.9976585,2.9976585 0 0 1 14.997658,12 Z"
       style="stroke-width:1"
       id="path6" />
  </g>
</svg>
